<?xml version="1.0" standalone="no"?>
<!DOCTYPE svg PUBLIC "-//W3C//DTD SVG 20010904//EN"
 "http://www.w3.org/TR/2001/REC-SVG-20010904/DTD/svg10.dtd">
<svg version="1.0" xmlns="http://www.w3.org/2000/svg"
 width="300.000000pt" height="300.000000pt" viewBox="0 0 300.000000 300.000000"
 preserveAspectRatio="xMidYMid meet">

<g transform="translate(0.000000,300.000000) scale(0.100000,-0.100000)"
fill="#000000" stroke="none">
<path d="M1305 2945 c-225 -30 -430 -109 -633 -245 -112 -74 -297 -257 -368
-362 -275 -407 -337 -904 -168 -1354 121 -325 388 -625 692 -778 387 -195 843
-215 1222 -54 196 83 318 164 468 312 207 203 320 403 404 716 21 77 23 106
23 320 0 212 -3 243 -23 320 -59 220 -129 376 -239 530 -73 101 -251 279 -343
341 -212 145 -421 225 -665 254 -142 18 -234 17 -370 0z m355 -100 c18 -16 28
-73 15 -86 -2 -3 -20 -3 -39 -1 -24 3 -36 10 -39 24 -9 34 -27 9 -27 -38 0
-44 12 -58 24 -28 5 13 16 15 50 12 l44 -5 9 45 c11 62 41 80 108 66 63 -12
89 -44 76 -94 -19 -74 -21 -90 -11 -90 13 0 52 78 45 90 -6 10 15 60 26 60 5
0 24 -8 44 -17 29 -14 35 -22 35 -48 0 -44 8 -48 45 -25 30 19 35 19 69 5 41
-17 44 -32 17 -66 -22 -29 -51 -84 -51 -99 0 -37 69 25 84 77 13 40 32 47 65
22 26 -19 31 -29 31 -66 0 -24 2 -43 4 -43 2 0 19 7 38 14 34 14 36 14 68 -13
l34 -28 -20 -26 c-10 -14 -24 -27 -30 -27 -13 0 -54 -54 -54 -72 -1 -7 -10
-24 -20 -37 l-20 -24 -40 28 c-42 29 -48 43 -27 64 10 11 9 13 -5 8 -13 -4
-18 -1 -18 10 0 16 -1 16 -16 1 -16 -15 -20 -14 -63 15 -25 18 -65 41 -89 51
-34 16 -41 23 -36 39 4 13 2 17 -5 13 -6 -4 -14 0 -17 9 -6 14 -8 14 -19 -2
-13 -17 -16 -17 -60 5 -25 12 -43 27 -40 32 8 13 -1 13 -26 -1 -29 -15 -126
14 -134 41 -8 24 -18 25 -35 5 -8 -10 -31 -15 -70 -15 -83 0 -97 20 -90 122 7
101 24 122 97 116 32 -3 61 -12 73 -23z m-364 -22 c4 -14 2 -34 -4 -44 -16
-24 -4 -76 18 -82 17 -4 34 -64 20 -72 -4 -3 -46 -14 -93 -24 -92 -22 -222
-71 -276 -104 l-34 -20 -20 24 c-19 22 -19 20 -2 -23 3 -8 -12 -23 -36 -36
-32 -19 -43 -21 -55 -11 -11 9 -14 7 -14 -11 0 -29 -164 -190 -194 -190 -17 0
-18 -2 -6 -10 12 -8 11 -13 -7 -37 -39 -49 -129 -215 -156 -288 -20 -53 -67
-243 -67 -271 0 -2 -7 -4 -15 -4 -19 0 -19 -14 0 -30 20 -17 20 -99 -1 -128
-14 -20 -24 -22 -101 -22 -110 0 -123 10 -123 90 0 78 18 94 105 91 37 -1 65
2 65 8 0 14 -29 21 -94 25 -31 2 -59 6 -63 9 -3 4 -1 38 6 76 10 56 18 73 38
87 22 13 32 14 63 5 50 -15 90 -14 90 2 0 15 -54 37 -91 37 -13 1 -34 6 -45
13 l-22 12 31 80 c16 44 31 81 32 83 2 2 19 -4 39 -12 22 -9 34 -20 31 -28 -4
-9 8 -19 31 -27 30 -11 38 -11 45 0 5 8 9 17 9 21 0 12 -43 38 -80 48 -66 19
-67 21 -21 104 23 42 47 76 52 76 21 0 60 -34 55 -47 -4 -8 7 -20 29 -30 32
-15 37 -15 51 -1 14 14 13 18 -20 44 -20 16 -39 29 -43 29 -14 1 -53 29 -53
38 0 24 43 67 67 67 21 0 23 2 13 15 -9 11 -6 22 20 54 32 39 33 40 56 23 13
-9 24 -22 24 -28 0 -13 63 -64 79 -64 25 0 8 28 -46 78 l-57 53 54 49 c76 68
103 68 160 -1 24 -27 46 -47 51 -42 11 11 -8 92 -33 131 -11 18 -19 35 -17 36
7 7 110 66 114 66 3 0 14 -18 25 -39 22 -44 77 -92 96 -84 10 3 9 14 -3 49 -8
24 -19 44 -23 44 -8 0 -33 61 -28 66 6 5 81 34 88 34 10 0 27 -45 34 -90 10
-56 18 -63 52 -45 16 8 37 15 46 15 14 0 16 6 12 33 -4 17 -13 42 -20 54 -22
35 -18 72 9 78 137 32 145 32 153 -2z m466 -296 c112 -30 238 -86 329 -148 82
-55 224 -197 276 -274 286 -426 247 -965 -96 -1327 -106 -112 -178 -166 -305
-228 -156 -77 -253 -101 -426 -107 -111 -4 -166 -1 -234 11 -373 71 -676 328
-806 683 -78 215 -81 479 -8 698 107 321 371 578 698 679 120 37 186 45 340
41 103 -2 158 -9 232 -28z m763 -122 c66 -74 67 -76 50 -95 -10 -11 -24 -20
-31 -20 -7 0 -34 -18 -59 -40 -61 -53 -93 -53 -140 -2 -52 56 -48 78 33 161
37 39 70 70 73 71 4 0 37 -34 74 -75z m118 -152 c14 -24 16 -37 8 -52 -9 -16
-8 -18 8 -14 14 4 25 -6 45 -39 24 -40 25 -44 9 -56 -10 -7 -34 -17 -54 -22
-42 -12 -88 -45 -77 -56 9 -8 98 24 98 36 0 4 14 13 30 19 29 9 31 8 45 -25
25 -61 24 -68 -20 -77 -51 -12 -115 -38 -115 -48 0 -4 -14 -12 -31 -18 -29
-10 -30 -10 -49 37 -11 26 -29 64 -40 85 -17 30 -18 41 -9 58 9 18 8 20 -9 15
-16 -6 -26 2 -46 36 -24 40 -25 44 -9 56 10 7 34 17 53 22 20 5 54 26 76 45
46 42 61 41 87 -2z m176 -393 c11 -47 21 -88 21 -92 0 -6 -55 -28 -70 -28 -4
0 -11 11 -14 25 -8 31 -35 32 -91 5 -56 -27 -63 -25 -75 21 -14 50 -8 69 22
70 13 1 32 2 43 3 11 1 31 3 44 4 21 2 23 6 18 36 -5 33 -4 35 31 44 20 5 40
6 43 3 4 -3 16 -44 28 -91z m40 -212 c1 -45 0 -48 -26 -49 l-28 -2 26 -4 c20
-3 28 -11 33 -35 10 -49 7 -88 -6 -88 -7 0 -23 -3 -35 -6 -17 -5 -23 -2 -23 9
0 8 -18 30 -41 48 -30 24 -43 29 -52 20 -6 -6 -26 -11 -44 -11 -29 0 -33 4
-38 34 -12 62 -5 71 52 71 40 0 57 5 77 24 14 14 26 32 26 42 0 13 9 19 33 21
38 4 45 -8 46 -74z m-779 -1167 c6 -16 9 -38 6 -49 -9 -27 13 -72 34 -72 16 0
49 -55 39 -64 -2 -2 -37 -20 -78 -41 -79 -39 -85 -38 -97 15 -8 38 -36 100
-45 100 -4 0 1 -27 11 -61 24 -80 15 -102 -52 -125 -74 -24 -103 -9 -124 67
-10 35 -22 59 -30 59 -8 0 -14 -8 -14 -17 0 -34 12 -63 26 -63 8 0 14 -4 14
-9 0 -5 3 -22 6 -39 l6 -30 -86 -12 c-47 -7 -89 -10 -93 -7 -3 4 -7 38 -8 76
-1 39 -7 77 -14 85 -7 8 -11 27 -9 43 3 27 6 28 83 39 50 7 84 8 92 2 7 -6 14
-4 20 5 13 22 102 48 124 36 15 -7 19 -7 17 3 -3 11 130 86 153 88 4 0 12 -13
19 -29z m-1080 -1 c22 -11 45 -30 51 -43 16 -31 15 -30 38 -17 26 14 98 -4
122 -31 9 -10 20 -14 25 -9 13 13 95 0 101 -16 3 -8 -2 -32 -11 -54 -21 -53
-22 -102 -1 -94 8 4 27 3 41 0 24 -6 26 -10 21 -43 -4 -19 -8 -37 -10 -40 -3
-2 -43 1 -91 8 -91 13 -95 16 -75 66 16 39 28 103 19 103 -3 0 -14 -25 -24
-55 -23 -73 -50 -89 -118 -68 -65 19 -84 53 -63 113 8 24 15 44 15 45 0 2 -16
9 -35 15 -27 9 -35 17 -35 36 0 36 -15 29 -35 -16 -19 -43 -15 -61 9 -41 11
10 21 9 45 -4 17 -8 31 -17 31 -20 0 -21 -28 -56 -52 -64 -25 -9 -38 -6 -78
14 -68 34 -72 61 -26 153 43 86 67 97 136 62z m494 -200 l-6 -78 46 5 46 6 0
-42 0 -41 -60 -1 c-33 -1 -72 -2 -87 -3 l-28 -1 -1 117 -1 117 41 3 c23 2 45
2 49 0 5 -2 5 -39 1 -82z"/>
<path d="M1537 2838 c-27 -20 -36 -147 -12 -172 23 -23 103 -19 119 6 16 26
-10 50 -28 26 -7 -10 -25 -18 -40 -18 -25 0 -26 2 -26 54 0 30 3 61 6 70 9 24
55 20 61 -4 7 -26 43 -27 43 -1 0 26 -19 39 -65 46 -26 4 -46 2 -58 -7z"/>
<path d="M1738 2806 c-15 -15 -38 -96 -38 -135 0 -24 16 -36 62 -49 49 -13 72
5 87 70 22 94 14 113 -55 124 -30 4 -45 2 -56 -10z m66 -22 c19 -7 20 -29 5
-90 -10 -40 -14 -45 -38 -42 -24 3 -26 6 -24 49 1 47 17 89 33 89 4 0 15 -3
24 -6z"/>
<path d="M1771 2733 c-13 -47 -14 -63 -1 -63 9 0 30 61 30 88 0 27 -20 10 -29
-25z"/>
<path d="M1943 2756 c6 -15 -36 -111 -60 -138 -13 -15 -13 -17 6 -27 27 -15
41 -14 41 3 0 7 8 31 17 52 l16 39 10 -45 c5 -25 11 -47 13 -49 2 -2 19 8 38
23 19 14 37 26 40 26 10 0 -26 -75 -40 -83 -21 -12 -17 -22 11 -35 34 -16 35
-15 35 7 0 21 40 112 59 135 7 8 10 20 6 26 -10 17 -38 11 -78 -15 -44 -31
-57 -26 -57 21 0 20 -5 44 -10 55 -12 22 -55 27 -47 5z"/>
<path d="M2210 2624 c0 -18 -51 -89 -84 -117 l-21 -17 25 -21 c24 -20 25 -21
30 -2 3 11 17 35 32 54 l28 34 -7 -52 c-3 -29 -3 -53 -1 -53 3 0 22 7 43 16
20 8 39 14 41 12 7 -7 -41 -68 -53 -68 -18 0 -16 -14 5 -33 26 -23 30 -22 46
17 8 19 33 53 55 75 23 23 41 43 41 46 0 2 -9 9 -19 15 -15 8 -33 5 -72 -10
l-52 -21 7 60 c6 53 5 61 -13 70 -26 15 -31 14 -31 -5z"/>
<path d="M1200 2818 c-50 -11 -71 -25 -54 -36 13 -8 34 -98 34 -143 0 -27 3
-30 23 -24 12 4 29 8 37 10 8 2 27 6 43 9 15 4 27 13 27 22 0 16 -2 16 -67 -2
-23 -6 -24 -5 -23 44 0 4 10 7 22 7 25 0 32 14 19 34 -8 12 -12 12 -25 2 -20
-17 -36 -6 -36 25 0 18 6 24 23 25 47 3 52 4 52 19 0 19 -18 21 -75 8z"/>
<path d="M968 2743 c-18 -5 -26 -33 -9 -33 10 0 53 -101 56 -133 1 -12 3 -23
4 -24 0 -1 27 9 58 21 35 13 59 29 61 39 4 18 -24 25 -30 8 -1 -5 -15 -12 -29
-16 -25 -6 -28 -3 -48 50 -12 30 -21 65 -21 75 0 20 -8 22 -42 13z"/>
<path d="M808 2659 c-40 -20 -47 -33 -25 -46 14 -8 37 -96 37 -139 0 -27 16
-30 44 -9 18 14 18 16 3 33 -16 18 -16 20 3 37 21 19 50 14 50 -10 0 -19 21
-19 46 0 18 15 18 16 -11 37 -57 43 -105 90 -100 98 11 18 -12 17 -47 -1z m63
-75 c10 -13 10 -17 -1 -24 -18 -11 -30 -3 -30 21 0 23 13 25 31 3z"/>
<path d="M613 2518 c-48 -42 -56 -52 -39 -56 16 -4 96 -96 96 -111 0 -25 24
-20 65 14 29 23 45 44 45 58 0 26 -91 127 -114 127 -8 0 -32 -15 -53 -32z m91
-50 c39 -45 43 -57 24 -76 -18 -18 -21 -16 -67 38 -35 42 -41 53 -31 65 20 24
36 18 74 -27z"/>
<path d="M651 2485 c0 -15 58 -80 65 -73 3 4 -10 24 -30 45 -19 21 -35 34 -35
28z"/>
<path d="M487 2392 c-21 -23 -21 -32 -3 -32 16 0 79 -50 73 -57 -3 -2 -33 1
-68 7 -56 9 -66 8 -76 -7 -16 -21 -16 -33 -2 -33 17 0 118 -83 119 -97 0 -19
14 -16 34 6 18 20 14 41 -7 41 -7 0 -25 11 -42 25 l-30 24 25 0 c14 0 44 -4
67 -8 34 -7 45 -5 58 9 20 22 19 40 -3 40 -10 0 -42 23 -72 50 -30 28 -55 50
-56 50 0 0 -8 -8 -17 -18z"/>
<path d="M320 2158 c-35 -61 -36 -68 -13 -68 19 0 98 -44 129 -72 l22 -19 31
57 c35 65 37 74 16 74 -8 0 -21 -16 -29 -35 -17 -39 -22 -41 -50 -20 -19 14
-19 15 -1 35 16 18 17 23 5 30 -22 14 -27 12 -34 -15 -7 -29 -13 -30 -40 -10
-17 13 -18 18 -6 40 7 14 17 25 22 25 4 0 8 7 8 15 0 32 -31 13 -60 -37z"/>
<path d="M236 1978 c-10 -29 -21 -59 -23 -65 -3 -8 4 -13 20 -13 31 0 137 -40
137 -51 0 -5 6 -9 13 -9 13 0 59 115 49 124 -13 14 -32 4 -32 -16 0 -38 -15
-51 -45 -44 -26 7 -26 8 -11 31 15 23 15 25 -3 34 -21 12 -31 5 -31 -21 0 -14
-6 -19 -22 -16 -19 2 -23 9 -21 32 1 16 7 33 14 37 6 4 8 12 5 18 -15 23 -32
9 -50 -41z"/>
<path d="M202 1804 c-19 -13 -49 -110 -38 -121 2 -3 29 -6 60 -8 31 -2 70 -11
88 -19 35 -18 50 -8 46 29 -2 15 -11 19 -38 20 -31 0 -35 3 -35 25 0 23 3 25
39 23 38 -3 56 8 56 34 0 7 -18 10 -52 8 -29 -1 -57 1 -63 5 -23 16 -44 18
-63 4z m48 -58 c0 -29 -7 -35 -31 -29 -21 6 -25 33 -8 50 17 17 39 4 39 -21z"/>
<path d="M162 1588 c-16 -16 -16 -100 0 -116 7 -7 41 -12 84 -12 80 0 92 7
101 64 7 47 -17 76 -64 76 -28 0 -33 -3 -33 -24 0 -21 4 -24 32 -22 24 1 33
-4 36 -17 7 -32 -13 -42 -77 -39 -60 4 -61 4 -61 33 0 19 5 29 15 29 8 0 15 9
15 20 0 23 -29 27 -48 8z"/>
<path d="M200 1530 c0 -5 7 -10 15 -10 8 0 15 5 15 10 0 6 -7 10 -15 10 -8 0
-15 -4 -15 -10z"/>
<path d="M1446 2275 c-25 -42 -46 -80 -46 -85 0 -5 10 -10 23 -12 l22 -3 3
-287 c2 -214 -1 -288 -9 -288 -7 0 -122 62 -256 138 -233 131 -243 138 -239
163 l5 27 -95 7 c-53 4 -98 5 -100 2 -7 -6 18 -55 64 -127 32 -50 35 -53 48
-36 12 17 29 9 251 -117 131 -75 246 -142 255 -149 16 -11 -11 -30 -233 -156
-231 -132 -252 -142 -268 -128 -10 9 -20 16 -23 16 -6 0 -98 -155 -98 -165 0
-7 195 -6 203 2 4 3 2 12 -5 20 -7 8 -8 17 -2 23 14 14 484 280 494 280 6 0
10 -112 10 -290 l0 -290 -25 0 c-14 0 -25 -4 -25 -9 0 -6 21 -46 47 -91 43
-73 49 -79 61 -63 19 25 92 150 92 157 0 3 -11 6 -25 6 l-25 0 0 290 c0 160 2
290 5 290 12 0 494 -269 514 -286 3 -3 -1 -10 -7 -16 -31 -31 -13 -38 88 -38
58 0 100 4 100 10 0 8 -85 158 -96 169 -2 3 -11 -4 -18 -15 -12 -15 -19 -17
-33 -9 -10 6 -125 71 -255 145 -130 74 -234 138 -232 141 3 6 410 240 483 279
20 10 25 10 33 -4 5 -9 13 -16 18 -16 10 0 100 148 100 165 0 9 -189 9 -198 0
-2 -2 1 -12 7 -23 10 -19 -9 -31 -238 -161 -137 -78 -254 -141 -260 -141 -8 0
-11 79 -9 288 l3 287 23 3 c12 2 22 6 22 9 0 13 -92 163 -100 163 -5 0 -29
-34 -54 -75z"/>
<path d="M2390 2389 c-30 -32 -57 -65 -58 -74 -5 -22 56 -85 81 -85 10 0 42
20 69 45 28 25 56 45 64 45 19 0 17 14 -5 34 -18 16 -21 15 -70 -34 -53 -53
-75 -59 -95 -27 -9 16 -4 25 38 62 27 24 53 42 57 39 4 -2 11 1 14 6 7 11 -22
51 -34 49 -3 -1 -31 -28 -61 -60z"/>
<path d="M2425 2337 c-25 -21 -35 -36 -27 -41 14 -8 76 46 71 63 -3 8 -18 0
-44 -22z"/>
<path d="M2590 2251 c0 -12 -111 -76 -127 -73 -21 5 -23 -16 -4 -39 18 -22 21
-22 33 -8 16 19 59 49 71 49 5 0 -5 -25 -23 -56 -22 -39 -30 -64 -26 -80 7
-25 31 -32 39 -11 5 11 93 60 129 71 15 5 16 9 6 31 -11 24 -38 35 -38 16 0
-8 -64 -51 -76 -51 -3 0 9 27 26 59 21 40 30 66 25 80 -6 21 -35 30 -35 12z"/>
<path d="M2703 2037 c-10 -16 -108 -57 -135 -57 -15 0 -18 -5 -13 -22 11 -35
23 -44 37 -27 15 18 112 59 139 59 22 0 23 1 7 35 -12 28 -23 32 -35 12z"/>
<path d="M2744 1918 c-4 -6 -2 -14 4 -16 7 -2 12 -11 12 -21 0 -12 -15 -21
-52 -31 -29 -7 -64 -14 -78 -15 -20 0 -24 -5 -22 -25 3 -32 8 -35 35 -22 12 6
46 18 75 26 55 16 68 11 60 -25 -3 -13 30 -21 34 -9 1 3 -7 38 -16 78 -17 69
-34 89 -52 60z"/>
<path d="M2774 1652 c-39 -44 -45 -47 -88 -46 -45 1 -47 0 -44 -25 3 -27 7
-28 61 -15 23 5 36 -1 77 -35 55 -46 75 -52 66 -18 -3 12 -6 28 -6 36 0 7 -6
11 -13 8 -7 -3 -24 3 -37 13 -24 18 -24 19 -6 39 10 11 24 17 32 14 8 -3 17 2
20 11 7 19 -3 66 -14 66 -4 -1 -26 -22 -48 -48z"/>
<path d="M1985 453 c-63 -32 -63 -32 -44 -46 21 -16 69 -111 69 -137 0 -25 -4
-25 64 6 31 14 56 32 56 40 0 19 -12 18 -49 -3 -28 -16 -33 -16 -41 -3 -15 23
-12 38 10 45 21 7 27 30 10 40 -6 3 -17 -1 -26 -10 -18 -18 -28 -12 -38 22 -6
19 -2 23 21 29 48 10 53 13 47 29 -8 20 -20 19 -79 -12z"/>
<path d="M1814 386 c-42 -19 -47 -37 -27 -108 21 -74 44 -93 94 -77 47 16 59
28 59 56 0 38 -17 62 -40 56 -23 -6 -24 -7 -8 -32 16 -26 3 -51 -26 -51 -21 0
-27 8 -40 54 -21 71 -21 73 10 80 18 5 30 2 38 -8 17 -23 45 -3 30 21 -14 23
-50 26 -90 9z"/>
<path d="M1631 351 c-31 -5 -57 -31 -32 -31 11 0 28 -109 23 -148 -3 -21 0
-23 25 -19 15 3 45 8 66 12 23 4 37 11 37 20 0 12 -10 13 -45 8 -44 -6 -45 -5
-45 21 0 21 5 26 25 26 19 0 25 5 25 21 0 18 -4 20 -30 14 -28 -6 -30 -5 -30
24 0 29 2 31 40 31 29 0 40 4 40 15 0 16 -34 18 -99 6z"/>
<path d="M1837 343 c-2 -4 -1 -17 3 -27 6 -19 7 -19 14 -1 7 19 -8 44 -17 28z"/>
<path d="M922 471 c-7 -4 -26 -36 -42 -70 -23 -48 -28 -67 -20 -82 12 -22 60
-49 88 -49 23 0 46 25 37 40 -8 13 -35 13 -35 0 0 -14 -23 -12 -46 4 -19 14
-18 15 8 70 19 39 34 56 47 56 22 0 45 -25 36 -40 -9 -14 24 -25 37 -12 18 18
-2 52 -42 72 -44 22 -49 23 -68 11z"/>
<path d="M1093 397 c-25 -11 -58 -115 -49 -152 7 -27 64 -50 101 -41 31 8 73
125 57 161 -12 27 -77 46 -109 32z m73 -42 c9 -22 -28 -119 -46 -122 -8 -2
-22 1 -30 6 -12 8 -12 17 -1 63 8 29 16 56 18 61 8 13 54 7 59 -8z"/>
<path d="M1111 309 c-9 -29 -9 -45 -2 -52 7 -7 12 -6 15 4 2 8 9 28 14 46 10
30 7 43 -8 43 -4 0 -12 -19 -19 -41z"/>
<path d="M1255 338 c5 -22 -6 -99 -20 -144 -6 -19 -1 -22 57 -31 68 -11 78
-10 78 13 0 9 -8 14 -22 13 -66 -6 -69 -3 -62 54 3 28 12 64 19 79 15 32 11
38 -27 38 -24 0 -28 -3 -23 -22z"/>
<path d="M1425 245 l0 -95 68 0 c60 0 67 2 67 20 0 17 -5 19 -32 13 -18 -3
-37 -6 -43 -7 -6 -1 -10 32 -10 82 0 81 0 82 -25 82 -25 0 -25 0 -25 -95z"/>
</g>
</svg>
